<svg width="32" height="32" viewBox="0 0 32 32" fill="none" xmlns="http://www.w3.org/2000/svg">
  <path d="M16 0C7.163 0 0 7.163 0 16C0 24.837 7.163 32 16 32C24.837 32 32 24.837 32 16C32 7.163 24.837 0 16 0ZM25.436 17.647C25.565 18.222 25.644 18.772 25.644 19.358C25.644 21.221 24.819 22.994 23.33 24.196C21.842 25.398 19.807 25.911 17.752 25.597C15.698 25.282 13.842 24.167 12.6 22.503C11.358 20.84 10.834 18.775 11.148 16.762L10.159 16.366C9.613 16.135 9.213 15.688 9.055 15.14C8.898 14.591 8.999 14.003 9.33 13.54L12.273 9.242C12.635 8.735 13.194 8.423 13.788 8.387C14.382 8.351 14.972 8.597 15.388 9.061L17.7 11.626C18.179 11.309 18.714 11.083 19.274 10.959C21.328 10.44 23.51 11.076 24.841 12.563C26.171 14.05 26.391 16.175 25.436 17.647Z" fill="white"/>
  <path d="M18.545 21.156C18.007 21.156 17.481 21.027 17.002 20.776C16.132 20.34 15.486 19.585 15.188 18.675C14.891 17.765 14.967 16.795 15.403 15.952L12.882 14.629C12.404 14.38 12.095 13.89 12.059 13.348C12.023 12.806 12.265 12.284 12.696 11.975L16.994 9.032C17.363 8.76 17.836 8.651 18.297 8.735C18.759 8.82 19.16 9.088 19.412 9.48L20.835 11.911C21.713 11.774 22.624 11.957 23.399 12.437C24.452 13.056 25.115 14.122 25.19 15.296C25.265 16.471 24.74 17.617 23.777 18.37C22.808 19.128 21.514 19.4 20.324 19.103C20.153 20.287 19.445 21.156 18.545 21.156Z" fill="#00FF80"/>
</svg>